<?xml version="1.0" encoding="utf-8" standalone="no"?>
<!DOCTYPE svg PUBLIC "-//W3C//DTD SVG 1.1//EN"
  "http://www.w3.org/Graphics/SVG/1.1/DTD/svg11.dtd">
<svg xmlns:xlink="http://www.w3.org/1999/xlink" width="765.36pt" height="446.4pt" viewBox="0 0 765.36 446.4" xmlns="http://www.w3.org/2000/svg" version="1.1">
 <metadata>
  <rdf:RDF xmlns:dc="http://purl.org/dc/elements/1.1/" xmlns:cc="http://creativecommons.org/ns#" xmlns:rdf="http://www.w3.org/1999/02/22-rdf-syntax-ns#">
   <cc:Work>
    <dc:type rdf:resource="http://purl.org/dc/dcmitype/StillImage"/>
    <dc:date>2022-11-26T23:04:44.119412</dc:date>
    <dc:format>image/svg+xml</dc:format>
    <dc:creator>
     <cc:Agent>
      <dc:title>Matplotlib v3.5.2, https://matplotlib.org/</dc:title>
     </cc:Agent>
    </dc:creator>
   </cc:Work>
  </rdf:RDF>
 </metadata>
 <defs>
  <style type="text/css">*{stroke-linejoin: round; stroke-linecap: butt}</style>
 </defs>
 <g id="figure_1">
  <g id="patch_1">
   <path d="M 0 446.4 
L 765.36 446.4 
L 765.36 0 
L 0 0 
z
" style="fill: #ffffff"/>
  </g>
  <g id="axes_1">
   <g id="patch_2">
    <path d="M 74.177469 410.388333 
L 732.443393 410.388333 
L 732.443393 33.79 
L 74.177469 33.79 
z
" style="fill: #ffffff"/>
   </g>
   <g id="matplotlib.axis_1">
    <g id="xtick_1">
     <g id="line2d_1">
      <path d="M 104.098647 410.388333 
L 104.098647 33.79 
" clip-path="url(#p870fdeb690)" style="fill: none; stroke: #b0b0b0; stroke-width: 0.8; stroke-linecap: square"/>
     </g>
     <g id="line2d_2">
      <defs>
       <path id="me26a5ae632" d="M 0 0 
L 0 3.5 
" style="stroke: #000000; stroke-width: 0.8"/>
      </defs>
      <g>
       <use xlink:href="#me26a5ae632" x="104.098647" y="410.388333" style="stroke: #000000; stroke-width: 0.8"/>
      </g>
     </g>
     <g id="text_1">
      <!-- 0 -->
      <g transform="translate(100.917397 424.986771)scale(0.1 -0.1)">
       <defs>
        <path id="DejaVuSans-30" d="M 2034 4250 
Q 1547 4250 1301 3770 
Q 1056 3291 1056 2328 
Q 1056 1369 1301 889 
Q 1547 409 2034 409 
Q 2525 409 2770 889 
Q 3016 1369 3016 2328 
Q 3016 3291 2770 3770 
Q 2525 4250 2034 4250 
z
M 2034 4750 
Q 2819 4750 3233 4129 
Q 3647 3509 3647 2328 
Q 3647 1150 3233 529 
Q 2819 -91 2034 -91 
Q 1250 -91 836 529 
Q 422 1150 422 2328 
Q 422 3509 836 4129 
Q 1250 4750 2034 4750 
z
" transform="scale(0.015625)"/>
       </defs>
       <use xlink:href="#DejaVuSans-30"/>
      </g>
     </g>
    </g>
    <g id="xtick_2">
     <g id="line2d_3">
      <path d="M 182.51112 410.388333 
L 182.51112 33.79 
" clip-path="url(#p870fdeb690)" style="fill: none; stroke: #b0b0b0; stroke-width: 0.8; stroke-linecap: square"/>
     </g>
     <g id="line2d_4">
      <g>
       <use xlink:href="#me26a5ae632" x="182.51112" y="410.388333" style="stroke: #000000; stroke-width: 0.8"/>
      </g>
     </g>
     <g id="text_2">
      <!-- 25 -->
      <g transform="translate(176.14862 424.986771)scale(0.1 -0.1)">
       <defs>
        <path id="DejaVuSans-32" d="M 1228 531 
L 3431 531 
L 3431 0 
L 469 0 
L 469 531 
Q 828 903 1448 1529 
Q 2069 2156 2228 2338 
Q 2531 2678 2651 2914 
Q 2772 3150 2772 3378 
Q 2772 3750 2511 3984 
Q 2250 4219 1831 4219 
Q 1534 4219 1204 4116 
Q 875 4013 500 3803 
L 500 4441 
Q 881 4594 1212 4672 
Q 1544 4750 1819 4750 
Q 2544 4750 2975 4387 
Q 3406 4025 3406 3419 
Q 3406 3131 3298 2873 
Q 3191 2616 2906 2266 
Q 2828 2175 2409 1742 
Q 1991 1309 1228 531 
z
" transform="scale(0.015625)"/>
        <path id="DejaVuSans-35" d="M 691 4666 
L 3169 4666 
L 3169 4134 
L 1269 4134 
L 1269 2991 
Q 1406 3038 1543 3061 
Q 1681 3084 1819 3084 
Q 2600 3084 3056 2656 
Q 3513 2228 3513 1497 
Q 3513 744 3044 326 
Q 2575 -91 1722 -91 
Q 1428 -91 1123 -41 
Q 819 9 494 109 
L 494 744 
Q 775 591 1075 516 
Q 1375 441 1709 441 
Q 2250 441 2565 725 
Q 2881 1009 2881 1497 
Q 2881 1984 2565 2268 
Q 2250 2553 1709 2553 
Q 1456 2553 1204 2497 
Q 953 2441 691 2322 
L 691 4666 
z
" transform="scale(0.015625)"/>
       </defs>
       <use xlink:href="#DejaVuSans-32"/>
       <use xlink:href="#DejaVuSans-35" x="63.623047"/>
      </g>
     </g>
    </g>
    <g id="xtick_3">
     <g id="line2d_5">
      <path d="M 260.923592 410.388333 
L 260.923592 33.79 
" clip-path="url(#p870fdeb690)" style="fill: none; stroke: #b0b0b0; stroke-width: 0.8; stroke-linecap: square"/>
     </g>
     <g id="line2d_6">
      <g>
       <use xlink:href="#me26a5ae632" x="260.923592" y="410.388333" style="stroke: #000000; stroke-width: 0.8"/>
      </g>
     </g>
     <g id="text_3">
      <!-- 50 -->
      <g transform="translate(254.561092 424.986771)scale(0.1 -0.1)">
       <use xlink:href="#DejaVuSans-35"/>
       <use xlink:href="#DejaVuSans-30" x="63.623047"/>
      </g>
     </g>
    </g>
    <g id="xtick_4">
     <g id="line2d_7">
      <path d="M 339.336065 410.388333 
L 339.336065 33.79 
" clip-path="url(#p870fdeb690)" style="fill: none; stroke: #b0b0b0; stroke-width: 0.8; stroke-linecap: square"/>
     </g>
     <g id="line2d_8">
      <g>
       <use xlink:href="#me26a5ae632" x="339.336065" y="410.388333" style="stroke: #000000; stroke-width: 0.8"/>
      </g>
     </g>
     <g id="text_4">
      <!-- 75 -->
      <g transform="translate(332.973565 424.986771)scale(0.1 -0.1)">
       <defs>
        <path id="DejaVuSans-37" d="M 525 4666 
L 3525 4666 
L 3525 4397 
L 1831 0 
L 1172 0 
L 2766 4134 
L 525 4134 
L 525 4666 
z
" transform="scale(0.015625)"/>
       </defs>
       <use xlink:href="#DejaVuSans-37"/>
       <use xlink:href="#DejaVuSans-35" x="63.623047"/>
      </g>
     </g>
    </g>
    <g id="xtick_5">
     <g id="line2d_9">
      <path d="M 417.748537 410.388333 
L 417.748537 33.79 
" clip-path="url(#p870fdeb690)" style="fill: none; stroke: #b0b0b0; stroke-width: 0.8; stroke-linecap: square"/>
     </g>
     <g id="line2d_10">
      <g>
       <use xlink:href="#me26a5ae632" x="417.748537" y="410.388333" style="stroke: #000000; stroke-width: 0.8"/>
      </g>
     </g>
     <g id="text_5">
      <!-- 100 -->
      <g transform="translate(408.204787 424.986771)scale(0.1 -0.1)">
       <defs>
        <path id="DejaVuSans-31" d="M 794 531 
L 1825 531 
L 1825 4091 
L 703 3866 
L 703 4441 
L 1819 4666 
L 2450 4666 
L 2450 531 
L 3481 531 
L 3481 0 
L 794 0 
L 794 531 
z
" transform="scale(0.015625)"/>
       </defs>
       <use xlink:href="#DejaVuSans-31"/>
       <use xlink:href="#DejaVuSans-30" x="63.623047"/>
       <use xlink:href="#DejaVuSans-30" x="127.246094"/>
      </g>
     </g>
    </g>
    <g id="xtick_6">
     <g id="line2d_11">
      <path d="M 496.16101 410.388333 
L 496.16101 33.79 
" clip-path="url(#p870fdeb690)" style="fill: none; stroke: #b0b0b0; stroke-width: 0.8; stroke-linecap: square"/>
     </g>
     <g id="line2d_12">
      <g>
       <use xlink:href="#me26a5ae632" x="496.16101" y="410.388333" style="stroke: #000000; stroke-width: 0.8"/>
      </g>
     </g>
     <g id="text_6">
      <!-- 125 -->
      <g transform="translate(486.61726 424.986771)scale(0.1 -0.1)">
       <use xlink:href="#DejaVuSans-31"/>
       <use xlink:href="#DejaVuSans-32" x="63.623047"/>
       <use xlink:href="#DejaVuSans-35" x="127.246094"/>
      </g>
     </g>
    </g>
    <g id="xtick_7">
     <g id="line2d_13">
      <path d="M 574.573482 410.388333 
L 574.573482 33.79 
" clip-path="url(#p870fdeb690)" style="fill: none; stroke: #b0b0b0; stroke-width: 0.8; stroke-linecap: square"/>
     </g>
     <g id="line2d_14">
      <g>
       <use xlink:href="#me26a5ae632" x="574.573482" y="410.388333" style="stroke: #000000; stroke-width: 0.8"/>
      </g>
     </g>
     <g id="text_7">
      <!-- 150 -->
      <g transform="translate(565.029732 424.986771)scale(0.1 -0.1)">
       <use xlink:href="#DejaVuSans-31"/>
       <use xlink:href="#DejaVuSans-35" x="63.623047"/>
       <use xlink:href="#DejaVuSans-30" x="127.246094"/>
      </g>
     </g>
    </g>
    <g id="xtick_8">
     <g id="line2d_15">
      <path d="M 652.985954 410.388333 
L 652.985954 33.79 
" clip-path="url(#p870fdeb690)" style="fill: none; stroke: #b0b0b0; stroke-width: 0.8; stroke-linecap: square"/>
     </g>
     <g id="line2d_16">
      <g>
       <use xlink:href="#me26a5ae632" x="652.985954" y="410.388333" style="stroke: #000000; stroke-width: 0.8"/>
      </g>
     </g>
     <g id="text_8">
      <!-- 175 -->
      <g transform="translate(643.442204 424.986771)scale(0.1 -0.1)">
       <use xlink:href="#DejaVuSans-31"/>
       <use xlink:href="#DejaVuSans-37" x="63.623047"/>
       <use xlink:href="#DejaVuSans-35" x="127.246094"/>
      </g>
     </g>
    </g>
    <g id="xtick_9">
     <g id="line2d_17">
      <path d="M 731.398427 410.388333 
L 731.398427 33.79 
" clip-path="url(#p870fdeb690)" style="fill: none; stroke: #b0b0b0; stroke-width: 0.8; stroke-linecap: square"/>
     </g>
     <g id="line2d_18">
      <g>
       <use xlink:href="#me26a5ae632" x="731.398427" y="410.388333" style="stroke: #000000; stroke-width: 0.8"/>
      </g>
     </g>
     <g id="text_9">
      <!-- 200 -->
      <g transform="translate(721.854677 424.986771)scale(0.1 -0.1)">
       <use xlink:href="#DejaVuSans-32"/>
       <use xlink:href="#DejaVuSans-30" x="63.623047"/>
       <use xlink:href="#DejaVuSans-30" x="127.246094"/>
      </g>
     </g>
    </g>
   </g>
   <g id="matplotlib.axis_2">
    <g id="ytick_1">
     <g id="line2d_19">
      <path d="M 74.177469 393.270227 
L 732.443393 393.270227 
" clip-path="url(#p870fdeb690)" style="fill: none; stroke: #b0b0b0; stroke-width: 0.8; stroke-linecap: square"/>
     </g>
     <g id="line2d_20">
      <defs>
       <path id="m4e6ffaf526" d="M 0 0 
L -3.5 0 
" style="stroke: #000000; stroke-width: 0.8"/>
      </defs>
      <g>
       <use xlink:href="#m4e6ffaf526" x="74.177469" y="393.270227" style="stroke: #000000; stroke-width: 0.8"/>
      </g>
     </g>
     <g id="text_10">
      <!-- 0 -->
      <g transform="translate(60.814969 397.069446)scale(0.1 -0.1)">
       <use xlink:href="#DejaVuSans-30"/>
      </g>
     </g>
    </g>
    <g id="ytick_2">
     <g id="line2d_21">
      <path d="M 74.177469 348.22258 
L 732.443393 348.22258 
" clip-path="url(#p870fdeb690)" style="fill: none; stroke: #b0b0b0; stroke-width: 0.8; stroke-linecap: square"/>
     </g>
     <g id="line2d_22">
      <g>
       <use xlink:href="#m4e6ffaf526" x="74.177469" y="348.22258" style="stroke: #000000; stroke-width: 0.8"/>
      </g>
     </g>
     <g id="text_11">
      <!-- 10 -->
      <g transform="translate(54.452469 352.021798)scale(0.1 -0.1)">
       <use xlink:href="#DejaVuSans-31"/>
       <use xlink:href="#DejaVuSans-30" x="63.623047"/>
      </g>
     </g>
    </g>
    <g id="ytick_3">
     <g id="line2d_23">
      <path d="M 74.177469 303.174932 
L 732.443393 303.174932 
" clip-path="url(#p870fdeb690)" style="fill: none; stroke: #b0b0b0; stroke-width: 0.8; stroke-linecap: square"/>
     </g>
     <g id="line2d_24">
      <g>
       <use xlink:href="#m4e6ffaf526" x="74.177469" y="303.174932" style="stroke: #000000; stroke-width: 0.8"/>
      </g>
     </g>
     <g id="text_12">
      <!-- 20 -->
      <g transform="translate(54.452469 306.974151)scale(0.1 -0.1)">
       <use xlink:href="#DejaVuSans-32"/>
       <use xlink:href="#DejaVuSans-30" x="63.623047"/>
      </g>
     </g>
    </g>
    <g id="ytick_4">
     <g id="line2d_25">
      <path d="M 74.177469 258.127285 
L 732.443393 258.127285 
" clip-path="url(#p870fdeb690)" style="fill: none; stroke: #b0b0b0; stroke-width: 0.8; stroke-linecap: square"/>
     </g>
     <g id="line2d_26">
      <g>
       <use xlink:href="#m4e6ffaf526" x="74.177469" y="258.127285" style="stroke: #000000; stroke-width: 0.8"/>
      </g>
     </g>
     <g id="text_13">
      <!-- 30 -->
      <g transform="translate(54.452469 261.926503)scale(0.1 -0.1)">
       <defs>
        <path id="DejaVuSans-33" d="M 2597 2516 
Q 3050 2419 3304 2112 
Q 3559 1806 3559 1356 
Q 3559 666 3084 287 
Q 2609 -91 1734 -91 
Q 1441 -91 1130 -33 
Q 819 25 488 141 
L 488 750 
Q 750 597 1062 519 
Q 1375 441 1716 441 
Q 2309 441 2620 675 
Q 2931 909 2931 1356 
Q 2931 1769 2642 2001 
Q 2353 2234 1838 2234 
L 1294 2234 
L 1294 2753 
L 1863 2753 
Q 2328 2753 2575 2939 
Q 2822 3125 2822 3475 
Q 2822 3834 2567 4026 
Q 2313 4219 1838 4219 
Q 1578 4219 1281 4162 
Q 984 4106 628 3988 
L 628 4550 
Q 988 4650 1302 4700 
Q 1616 4750 1894 4750 
Q 2613 4750 3031 4423 
Q 3450 4097 3450 3541 
Q 3450 3153 3228 2886 
Q 3006 2619 2597 2516 
z
" transform="scale(0.015625)"/>
       </defs>
       <use xlink:href="#DejaVuSans-33"/>
       <use xlink:href="#DejaVuSans-30" x="63.623047"/>
      </g>
     </g>
    </g>
    <g id="ytick_5">
     <g id="line2d_27">
      <path d="M 74.177469 213.079637 
L 732.443393 213.079637 
" clip-path="url(#p870fdeb690)" style="fill: none; stroke: #b0b0b0; stroke-width: 0.8; stroke-linecap: square"/>
     </g>
     <g id="line2d_28">
      <g>
       <use xlink:href="#m4e6ffaf526" x="74.177469" y="213.079637" style="stroke: #000000; stroke-width: 0.8"/>
      </g>
     </g>
     <g id="text_14">
      <!-- 40 -->
      <g transform="translate(54.452469 216.878856)scale(0.1 -0.1)">
       <defs>
        <path id="DejaVuSans-34" d="M 2419 4116 
L 825 1625 
L 2419 1625 
L 2419 4116 
z
M 2253 4666 
L 3047 4666 
L 3047 1625 
L 3713 1625 
L 3713 1100 
L 3047 1100 
L 3047 0 
L 2419 0 
L 2419 1100 
L 313 1100 
L 313 1709 
L 2253 4666 
z
" transform="scale(0.015625)"/>
       </defs>
       <use xlink:href="#DejaVuSans-34"/>
       <use xlink:href="#DejaVuSans-30" x="63.623047"/>
      </g>
     </g>
    </g>
    <g id="ytick_6">
     <g id="line2d_29">
      <path d="M 74.177469 168.03199 
L 732.443393 168.03199 
" clip-path="url(#p870fdeb690)" style="fill: none; stroke: #b0b0b0; stroke-width: 0.8; stroke-linecap: square"/>
     </g>
     <g id="line2d_30">
      <g>
       <use xlink:href="#m4e6ffaf526" x="74.177469" y="168.03199" style="stroke: #000000; stroke-width: 0.8"/>
      </g>
     </g>
     <g id="text_15">
      <!-- 50 -->
      <g transform="translate(54.452469 171.831208)scale(0.1 -0.1)">
       <use xlink:href="#DejaVuSans-35"/>
       <use xlink:href="#DejaVuSans-30" x="63.623047"/>
      </g>
     </g>
    </g>
    <g id="ytick_7">
     <g id="line2d_31">
      <path d="M 74.177469 122.984342 
L 732.443393 122.984342 
" clip-path="url(#p870fdeb690)" style="fill: none; stroke: #b0b0b0; stroke-width: 0.8; stroke-linecap: square"/>
     </g>
     <g id="line2d_32">
      <g>
       <use xlink:href="#m4e6ffaf526" x="74.177469" y="122.984342" style="stroke: #000000; stroke-width: 0.8"/>
      </g>
     </g>
     <g id="text_16">
      <!-- 60 -->
      <g transform="translate(54.452469 126.783561)scale(0.1 -0.1)">
       <defs>
        <path id="DejaVuSans-36" d="M 2113 2584 
Q 1688 2584 1439 2293 
Q 1191 2003 1191 1497 
Q 1191 994 1439 701 
Q 1688 409 2113 409 
Q 2538 409 2786 701 
Q 3034 994 3034 1497 
Q 3034 2003 2786 2293 
Q 2538 2584 2113 2584 
z
M 3366 4563 
L 3366 3988 
Q 3128 4100 2886 4159 
Q 2644 4219 2406 4219 
Q 1781 4219 1451 3797 
Q 1122 3375 1075 2522 
Q 1259 2794 1537 2939 
Q 1816 3084 2150 3084 
Q 2853 3084 3261 2657 
Q 3669 2231 3669 1497 
Q 3669 778 3244 343 
Q 2819 -91 2113 -91 
Q 1303 -91 875 529 
Q 447 1150 447 2328 
Q 447 3434 972 4092 
Q 1497 4750 2381 4750 
Q 2619 4750 2861 4703 
Q 3103 4656 3366 4563 
z
" transform="scale(0.015625)"/>
       </defs>
       <use xlink:href="#DejaVuSans-36"/>
       <use xlink:href="#DejaVuSans-30" x="63.623047"/>
      </g>
     </g>
    </g>
    <g id="ytick_8">
     <g id="line2d_33">
      <path d="M 74.177469 77.936695 
L 732.443393 77.936695 
" clip-path="url(#p870fdeb690)" style="fill: none; stroke: #b0b0b0; stroke-width: 0.8; stroke-linecap: square"/>
     </g>
     <g id="line2d_34">
      <g>
       <use xlink:href="#m4e6ffaf526" x="74.177469" y="77.936695" style="stroke: #000000; stroke-width: 0.8"/>
      </g>
     </g>
     <g id="text_17">
      <!-- 70 -->
      <g transform="translate(54.452469 81.735913)scale(0.1 -0.1)">
       <use xlink:href="#DejaVuSans-37"/>
       <use xlink:href="#DejaVuSans-30" x="63.623047"/>
      </g>
     </g>
    </g>
    <g id="text_18">
     <!-- queue length -->
     <g transform="translate(48.372781 255.280573)rotate(-90)scale(0.1 -0.1)">
      <defs>
       <path id="DejaVuSans-71" d="M 947 1747 
Q 947 1113 1208 752 
Q 1469 391 1925 391 
Q 2381 391 2643 752 
Q 2906 1113 2906 1747 
Q 2906 2381 2643 2742 
Q 2381 3103 1925 3103 
Q 1469 3103 1208 2742 
Q 947 2381 947 1747 
z
M 2906 525 
Q 2725 213 2448 61 
Q 2172 -91 1784 -91 
Q 1150 -91 751 415 
Q 353 922 353 1747 
Q 353 2572 751 3078 
Q 1150 3584 1784 3584 
Q 2172 3584 2448 3432 
Q 2725 3281 2906 2969 
L 2906 3500 
L 3481 3500 
L 3481 -1331 
L 2906 -1331 
L 2906 525 
z
" transform="scale(0.015625)"/>
       <path id="DejaVuSans-75" d="M 544 1381 
L 544 3500 
L 1119 3500 
L 1119 1403 
Q 1119 906 1312 657 
Q 1506 409 1894 409 
Q 2359 409 2629 706 
Q 2900 1003 2900 1516 
L 2900 3500 
L 3475 3500 
L 3475 0 
L 2900 0 
L 2900 538 
Q 2691 219 2414 64 
Q 2138 -91 1772 -91 
Q 1169 -91 856 284 
Q 544 659 544 1381 
z
M 1991 3584 
L 1991 3584 
z
" transform="scale(0.015625)"/>
       <path id="DejaVuSans-65" d="M 3597 1894 
L 3597 1613 
L 953 1613 
Q 991 1019 1311 708 
Q 1631 397 2203 397 
Q 2534 397 2845 478 
Q 3156 559 3463 722 
L 3463 178 
Q 3153 47 2828 -22 
Q 2503 -91 2169 -91 
Q 1331 -91 842 396 
Q 353 884 353 1716 
Q 353 2575 817 3079 
Q 1281 3584 2069 3584 
Q 2775 3584 3186 3129 
Q 3597 2675 3597 1894 
z
M 3022 2063 
Q 3016 2534 2758 2815 
Q 2500 3097 2075 3097 
Q 1594 3097 1305 2825 
Q 1016 2553 972 2059 
L 3022 2063 
z
" transform="scale(0.015625)"/>
       <path id="DejaVuSans-20" transform="scale(0.015625)"/>
       <path id="DejaVuSans-6c" d="M 603 4863 
L 1178 4863 
L 1178 0 
L 603 0 
L 603 4863 
z
" transform="scale(0.015625)"/>
       <path id="DejaVuSans-6e" d="M 3513 2113 
L 3513 0 
L 2938 0 
L 2938 2094 
Q 2938 2591 2744 2837 
Q 2550 3084 2163 3084 
Q 1697 3084 1428 2787 
Q 1159 2491 1159 1978 
L 1159 0 
L 581 0 
L 581 3500 
L 1159 3500 
L 1159 2956 
Q 1366 3272 1645 3428 
Q 1925 3584 2291 3584 
Q 2894 3584 3203 3211 
Q 3513 2838 3513 2113 
z
" transform="scale(0.015625)"/>
       <path id="DejaVuSans-67" d="M 2906 1791 
Q 2906 2416 2648 2759 
Q 2391 3103 1925 3103 
Q 1463 3103 1205 2759 
Q 947 2416 947 1791 
Q 947 1169 1205 825 
Q 1463 481 1925 481 
Q 2391 481 2648 825 
Q 2906 1169 2906 1791 
z
M 3481 434 
Q 3481 -459 3084 -895 
Q 2688 -1331 1869 -1331 
Q 1566 -1331 1297 -1286 
Q 1028 -1241 775 -1147 
L 775 -588 
Q 1028 -725 1275 -790 
Q 1522 -856 1778 -856 
Q 2344 -856 2625 -561 
Q 2906 -266 2906 331 
L 2906 616 
Q 2728 306 2450 153 
Q 2172 0 1784 0 
Q 1141 0 747 490 
Q 353 981 353 1791 
Q 353 2603 747 3093 
Q 1141 3584 1784 3584 
Q 2172 3584 2450 3431 
Q 2728 3278 2906 2969 
L 2906 3500 
L 3481 3500 
L 3481 434 
z
" transform="scale(0.015625)"/>
       <path id="DejaVuSans-74" d="M 1172 4494 
L 1172 3500 
L 2356 3500 
L 2356 3053 
L 1172 3053 
L 1172 1153 
Q 1172 725 1289 603 
Q 1406 481 1766 481 
L 2356 481 
L 2356 0 
L 1766 0 
Q 1100 0 847 248 
Q 594 497 594 1153 
L 594 3053 
L 172 3053 
L 172 3500 
L 594 3500 
L 594 4494 
L 1172 4494 
z
" transform="scale(0.015625)"/>
       <path id="DejaVuSans-68" d="M 3513 2113 
L 3513 0 
L 2938 0 
L 2938 2094 
Q 2938 2591 2744 2837 
Q 2550 3084 2163 3084 
Q 1697 3084 1428 2787 
Q 1159 2491 1159 1978 
L 1159 0 
L 581 0 
L 581 4863 
L 1159 4863 
L 1159 2956 
Q 1366 3272 1645 3428 
Q 1925 3584 2291 3584 
Q 2894 3584 3203 3211 
Q 3513 2838 3513 2113 
z
" transform="scale(0.015625)"/>
      </defs>
      <use xlink:href="#DejaVuSans-71"/>
      <use xlink:href="#DejaVuSans-75" x="63.476562"/>
      <use xlink:href="#DejaVuSans-65" x="126.855469"/>
      <use xlink:href="#DejaVuSans-75" x="188.378906"/>
      <use xlink:href="#DejaVuSans-65" x="251.757812"/>
      <use xlink:href="#DejaVuSans-20" x="313.28125"/>
      <use xlink:href="#DejaVuSans-6c" x="345.068359"/>
      <use xlink:href="#DejaVuSans-65" x="372.851562"/>
      <use xlink:href="#DejaVuSans-6e" x="434.375"/>
      <use xlink:href="#DejaVuSans-67" x="497.753906"/>
      <use xlink:href="#DejaVuSans-74" x="561.230469"/>
      <use xlink:href="#DejaVuSans-68" x="600.439453"/>
     </g>
    </g>
   </g>
   <g id="line2d_35">
    <path d="M 104.098647 393.270227 
L 135.463636 388.765463 
L 136.331767 384.260698 
L 136.331767 379.755933 
L 139.889975 375.251168 
L 139.889975 370.746404 
L 141.191501 375.251168 
L 143.129205 370.746404 
L 143.129205 366.241639 
L 145.618686 361.736874 
L 145.618686 357.232109 
L 146.919365 361.736874 
L 149.7136 357.232109 
L 149.7136 352.727344 
L 150.761546 348.22258 
L 150.761546 343.717815 
L 152.495932 339.21305 
L 152.495932 334.708285 
L 152.647229 339.21305 
L 158.375094 343.717815 
L 159.34974 339.21305 
L 159.34974 334.708285 
L 163.059818 330.203521 
L 163.059818 325.698756 
L 164.102958 330.203521 
L 165.509403 325.698756 
L 165.509403 321.193991 
L 165.723487 316.689226 
L 165.723487 312.184462 
L 167.064052 307.679697 
L 167.064052 303.174932 
L 169.724286 298.670167 
L 169.724286 294.165403 
L 169.830823 298.670167 
L 170.275408 294.165403 
L 170.275408 289.660638 
L 174.551542 285.155873 
L 174.551542 280.651108 
L 175.558687 285.155873 
L 177.903842 280.651108 
L 177.903842 276.146344 
L 180.47532 271.641579 
L 180.47532 267.136814 
L 181.286552 271.641579 
L 182.82828 267.136814 
L 182.82828 262.632049 
L 185.173442 258.127285 
L 185.173442 253.62252 
L 185.989644 249.117755 
L 185.989644 244.61299 
L 187.014416 249.117755 
L 189.018773 244.61299 
L 189.018773 240.108226 
L 191.691217 235.603461 
L 191.691217 231.098696 
L 192.614723 226.593931 
L 192.614723 222.089167 
L 192.74228 226.593931 
L 196.522708 222.089167 
L 196.522708 217.584402 
L 198.470145 222.089167 
L 199.428088 217.584402 
L 199.428088 213.079637 
L 202.984138 208.574872 
L 202.984138 204.070108 
L 204.198009 208.574872 
L 205.783252 204.070108 
L 205.783252 199.565343 
L 208.413061 195.060578 
L 208.413061 190.555813 
L 209.925874 195.060578 
L 210.818042 190.555813 
L 210.818042 186.051049 
L 213.781933 181.546284 
L 213.781933 177.041519 
L 215.653738 181.546284 
L 216.86049 177.041519 
L 216.86049 172.536754 
L 218.679917 168.03199 
L 218.679917 163.527225 
L 221.381603 168.03199 
L 222.645697 163.527225 
L 222.645697 159.02246 
L 227.109467 163.527225 
L 227.241148 159.02246 
L 227.241148 154.517695 
L 229.726178 150.012931 
L 229.726178 145.508166 
L 232.740072 141.003401 
L 232.740072 136.498636 
L 232.837331 141.003401 
L 233.085431 136.498636 
L 233.085431 131.993872 
L 237.123327 127.489107 
L 237.123327 122.984342 
L 238.565196 127.489107 
L 239.955907 122.984342 
L 239.955907 118.479577 
L 244.29306 122.984342 
L 245.624499 118.479577 
L 245.624499 113.974813 
L 249.864545 109.470048 
L 249.864545 104.965283 
L 250.020925 109.470048 
L 250.298285 104.965283 
L 250.298285 100.460518 
L 252.489068 95.955754 
L 252.489068 91.450989 
L 255.748789 95.955754 
L 256.836055 91.450989 
L 256.836055 86.946224 
L 260.570343 82.441459 
L 260.570343 77.936695 
L 261.476654 82.441459 
L 266.412083 77.936695 
L 266.412083 73.43193 
L 267.204518 77.936695 
L 267.283112 68.927165 
L 269.064813 64.4224 
L 269.064813 59.917636 
L 272.085632 55.412871 
L 272.085632 50.908106 
L 272.932382 55.412871 
L 702.522215 393.270227 
L 702.522215 393.270227 
" clip-path="url(#p870fdeb690)" style="fill: none; stroke: #1f77b4; stroke-width: 1.5; stroke-linecap: square"/>
   </g>
   <g id="line2d_36">
    <path d="M 104.098647 393.270227 
L 135.463636 388.765463 
L 140.562119 393.270227 
L 144.603859 388.765463 
L 144.603859 384.260698 
L 145.660601 388.765463 
L 149.407944 384.260698 
L 149.407944 379.755933 
L 150.759083 384.260698 
L 152.080707 379.755933 
L 152.080707 375.251168 
L 153.292617 370.746404 
L 153.292617 366.241639 
L 155.039952 361.736874 
L 155.039952 357.232109 
L 155.857566 361.736874 
L 158.23062 357.232109 
L 158.23062 352.727344 
L 160.956048 357.232109 
L 162.727634 352.727344 
L 162.727634 348.22258 
L 164.079313 343.717815 
L 164.079313 339.21305 
L 166.054531 343.717815 
L 167.75962 339.21305 
L 167.75962 334.708285 
L 171.153013 339.21305 
L 174.941673 334.708285 
L 174.941673 330.203521 
L 176.251496 334.708285 
L 178.828176 330.203521 
L 178.828176 325.698756 
L 181.349978 330.203521 
L 185.428432 325.698756 
L 185.428432 321.193991 
L 186.448461 325.698756 
L 191.271666 321.193991 
L 191.271666 316.689226 
L 191.546943 321.193991 
L 193.961007 316.689226 
L 193.961007 312.184462 
L 196.525508 307.679697 
L 196.525508 303.174932 
L 196.645426 307.679697 
L 197.895948 303.174932 
L 197.895948 298.670167 
L 199.465309 294.165403 
L 199.465309 289.660638 
L 201.743908 294.165403 
L 203.129254 289.660638 
L 203.129254 285.155873 
L 205.991626 280.651108 
L 205.991626 276.146344 
L 206.842391 280.651108 
L 209.477582 276.146344 
L 209.477582 271.641579 
L 211.940873 276.146344 
L 212.307097 271.641579 
L 212.307097 267.136814 
L 214.222361 262.632049 
L 214.222361 258.127285 
L 216.993542 253.62252 
L 216.993542 249.117755 
L 217.039355 253.62252 
L 221.82178 249.117755 
L 221.82178 244.61299 
L 222.137838 249.117755 
L 224.888881 244.61299 
L 224.888881 240.108226 
L 227.23632 244.61299 
L 229.093763 240.108226 
L 229.093763 235.603461 
L 232.334803 240.108226 
L 233.545508 235.603461 
L 233.545508 231.098696 
L 237.433285 235.603461 
L 238.293138 231.098696 
L 238.293138 226.593931 
L 242.449085 222.089167 
L 242.449085 217.584402 
L 242.531768 222.089167 
L 243.741466 217.584402 
L 243.741466 213.079637 
L 246.415619 208.574872 
L 246.415619 204.070108 
L 247.63025 208.574872 
L 248.24782 204.070108 
L 248.24782 199.565343 
L 248.960412 195.060578 
L 248.960412 190.555813 
L 252.537158 186.051049 
L 252.537158 181.546284 
L 252.728733 186.051049 
L 257.827215 190.555813 
L 258.65892 186.051049 
L 258.65892 181.546284 
L 262.378777 177.041519 
L 262.378777 172.536754 
L 262.925698 177.041519 
L 266.019058 172.536754 
L 266.019058 168.03199 
L 268.02418 172.536754 
L 268.411511 168.03199 
L 268.411511 163.527225 
L 271.350702 159.02246 
L 271.350702 154.517695 
L 273.122662 159.02246 
L 273.333695 154.517695 
L 273.333695 150.012931 
L 275.729862 145.508166 
L 275.729862 141.003401 
L 278.221145 145.508166 
L 282.826374 141.003401 
L 282.885191 127.489107 
L 283.319627 131.993872 
L 286.295589 127.489107 
L 286.295589 122.984342 
L 286.834851 118.479577 
L 286.834851 113.974813 
L 288.41811 118.479577 
L 291.470517 113.974813 
L 291.470517 109.470048 
L 292.04759 104.965283 
L 292.04759 100.460518 
L 293.516592 104.965283 
L 293.554925 95.955754 
L 293.923018 91.450989 
L 293.923018 86.946224 
L 298.615075 91.450989 
L 640.213399 393.270227 
L 640.213399 393.270227 
" clip-path="url(#p870fdeb690)" style="fill: none; stroke: #ff7f0e; stroke-width: 1.5; stroke-linecap: square"/>
   </g>
   <g id="line2d_37">
    <path d="M 104.098647 393.270227 
L 135.463636 388.765463 
L 135.79458 384.260698 
L 135.79458 379.755933 
L 138.85325 375.251168 
L 138.85325 370.746404 
L 140.651381 375.251168 
L 141.638883 370.746404 
L 141.638883 366.241639 
L 145.126742 361.736874 
L 145.126742 357.232109 
L 145.839127 361.736874 
L 146.98428 357.232109 
L 146.98428 352.727344 
L 151.026872 357.232109 
L 152.741664 352.727344 
L 152.741664 348.22258 
L 156.214617 352.727344 
L 156.719777 348.22258 
L 156.719777 343.717815 
L 161.402362 348.22258 
L 161.49309 339.21305 
L 165.683822 334.708285 
L 165.683822 330.203521 
L 166.590107 334.708285 
L 168.507046 330.203521 
L 168.507046 325.698756 
L 171.572595 321.193991 
L 171.572595 316.689226 
L 171.777853 321.193991 
L 172.768058 316.689226 
L 172.768058 312.184462 
L 176.741923 307.679697 
L 176.741923 303.174932 
L 176.965598 307.679697 
L 179.847361 303.174932 
L 179.847361 298.670167 
L 182.153343 303.174932 
L 182.375719 298.670167 
L 182.375719 294.165403 
L 182.822124 289.660638 
L 182.822124 285.155873 
L 185.115481 280.651108 
L 185.115481 276.146344 
L 187.341088 280.651108 
L 189.142355 276.146344 
L 189.142355 271.641579 
L 192.528833 276.146344 
L 194.768402 271.641579 
L 194.768402 267.136814 
L 197.716578 271.641579 
L 198.778465 267.136814 
L 198.778465 262.632049 
L 202.414051 258.127285 
L 202.414051 253.62252 
L 202.904324 258.127285 
L 205.019558 253.62252 
L 205.019558 249.117755 
L 208.092069 253.62252 
L 209.300834 249.117755 
L 209.300834 244.61299 
L 213.279814 249.117755 
L 215.985952 244.61299 
L 215.985952 240.108226 
L 218.467559 244.61299 
L 222.024665 240.108226 
L 222.024665 235.603461 
L 223.655304 240.108226 
L 226.198479 235.603461 
L 226.198479 231.098696 
L 228.84305 235.603461 
L 231.244742 231.098696 
L 231.244742 226.593931 
L 234.030795 231.098696 
L 239.21854 235.603461 
L 241.081128 231.098696 
L 241.081128 226.593931 
L 241.681369 222.089167 
L 241.681369 217.584402 
L 244.406285 222.089167 
L 246.569946 217.584402 
L 246.569946 213.079637 
L 249.59403 217.584402 
L 249.854703 213.079637 
L 249.854703 208.574872 
L 254.618562 204.070108 
L 254.618562 199.565343 
L 254.781776 204.070108 
L 255.692084 199.565343 
L 255.692084 195.060578 
L 257.424914 190.555813 
L 257.424914 186.051049 
L 259.550517 181.546284 
L 259.550517 177.041519 
L 259.969521 181.546284 
L 261.957291 177.041519 
L 261.957291 172.536754 
L 265.157266 177.041519 
L 265.762007 172.536754 
L 265.762007 168.03199 
L 268.274972 163.527225 
L 268.274972 159.02246 
L 270.345011 163.527225 
L 274.418741 159.02246 
L 274.418741 154.517695 
L 275.486987 150.012931 
L 275.486987 145.508166 
L 275.532756 150.012931 
L 276.478774 145.508166 
L 276.478774 141.003401 
L 279.334236 136.498636 
L 279.334236 131.993872 
L 280.720502 136.498636 
L 284.485518 131.993872 
L 284.485518 127.489107 
L 285.908247 131.993872 
L 290.406665 127.489107 
L 290.406665 122.984342 
L 291.095992 127.489107 
L 291.321315 122.984342 
L 291.321315 118.479577 
L 294.708713 113.974813 
L 294.708713 109.470048 
L 296.283737 113.974813 
L 297.765607 109.470048 
L 297.765607 104.965283 
L 301.471482 109.470048 
L 302.753588 104.965283 
L 302.753588 100.460518 
L 306.659228 104.965283 
L 309.105546 100.460518 
L 309.105546 95.955754 
L 311.846973 100.460518 
L 649.050411 393.270227 
L 649.050411 393.270227 
" clip-path="url(#p870fdeb690)" style="fill: none; stroke: #2ca02c; stroke-width: 1.5; stroke-linecap: square"/>
   </g>
   <g id="line2d_38">
    <path d="M 104.098647 393.270227 
L 135.463636 388.765463 
L 135.955974 384.260698 
L 135.955974 379.755933 
L 137.397123 375.251168 
L 137.397123 370.746404 
L 139.28543 366.241639 
L 139.28543 361.736874 
L 141.182164 366.241639 
L 142.513385 361.736874 
L 142.513385 357.232109 
L 145.346053 352.727344 
L 145.346053 348.22258 
L 146.900693 352.727344 
L 147.782526 348.22258 
L 147.782526 343.717815 
L 152.619221 348.22258 
L 154.418 343.717815 
L 154.418 339.21305 
L 158.337749 343.717815 
L 158.364656 334.708285 
L 162.011099 330.203521 
L 162.011099 325.698756 
L 164.056278 330.203521 
L 168.321194 325.698756 
L 168.321194 321.193991 
L 169.774806 325.698756 
L 171.845841 321.193991 
L 171.845841 316.689226 
L 174.555766 312.184462 
L 174.555766 307.679697 
L 175.493334 312.184462 
L 179.127312 307.679697 
L 179.127312 303.174932 
L 181.211863 307.679697 
L 182.423109 303.174932 
L 182.423109 298.670167 
L 185.593596 294.165403 
L 185.593596 289.660638 
L 186.930391 294.165403 
L 188.520951 289.660638 
L 188.520951 285.155873 
L 189.981062 280.651108 
L 189.981062 276.146344 
L 191.101054 271.641579 
L 191.101054 267.136814 
L 191.851657 262.632049 
L 191.851657 258.127285 
L 192.648919 262.632049 
L 193.117176 258.127285 
L 193.117176 253.62252 
L 198.31377 249.117755 
L 198.31377 244.61299 
L 198.367448 249.117755 
L 201.650404 244.61299 
L 201.650404 240.108226 
L 204.085976 244.61299 
L 204.478021 240.108226 
L 204.478021 235.603461 
L 207.254357 231.098696 
L 207.254357 226.593931 
L 209.406813 222.089167 
L 209.406813 217.584402 
L 209.804504 222.089167 
L 215.523033 226.593931 
L 217.691474 222.089167 
L 217.691474 217.584402 
L 221.241561 222.089167 
L 222.141989 217.584402 
L 222.141989 213.079637 
L 226.78261 208.574872 
L 226.78261 204.070108 
L 226.960089 208.574872 
L 229.710741 204.070108 
L 229.710741 199.565343 
L 232.678618 204.070108 
L 233.956467 199.565343 
L 233.956467 195.060578 
L 238.397146 199.565343 
L 238.664708 195.060578 
L 238.664708 190.555813 
L 240.86205 186.051049 
L 240.86205 181.546284 
L 244.115674 186.051049 
L 244.789003 181.546284 
L 244.789003 177.041519 
L 249.834202 181.546284 
L 250.895669 177.041519 
L 250.895669 172.536754 
L 255.552731 177.041519 
L 258.247209 172.536754 
L 258.247209 168.03199 
L 259.86227 163.527225 
L 259.86227 159.02246 
L 261.271259 163.527225 
L 261.306347 154.517695 
L 265.684645 150.012931 
L 265.684645 145.508166 
L 266.989787 150.012931 
L 268.147123 145.508166 
L 268.147123 141.003401 
L 272.708316 145.508166 
L 275.428442 141.003401 
L 275.471445 127.489107 
L 278.336729 122.984342 
L 278.336729 118.479577 
L 278.426844 122.984342 
L 280.915312 118.479577 
L 280.915312 113.974813 
L 281.989135 109.470048 
L 281.989135 104.965283 
L 284.145372 109.470048 
L 285.966557 104.965283 
L 285.966557 100.460518 
L 288.667574 95.955754 
L 288.667574 91.450989 
L 289.863901 95.955754 
L 290.142586 91.450989 
L 290.142586 86.946224 
L 293.677829 82.441459 
L 293.677829 77.936695 
L 295.582429 82.441459 
L 296.210825 77.936695 
L 296.210825 73.43193 
L 301.300957 77.936695 
L 701.59794 393.270227 
L 701.59794 393.270227 
" clip-path="url(#p870fdeb690)" style="fill: none; stroke: #d62728; stroke-width: 1.5; stroke-linecap: square"/>
   </g>
   <g id="patch_3">
    <path d="M 74.177469 410.388333 
L 74.177469 33.79 
" style="fill: none; stroke: #000000; stroke-width: 0.8; stroke-linejoin: miter; stroke-linecap: square"/>
   </g>
   <g id="patch_4">
    <path d="M 732.443393 410.388333 
L 732.443393 33.79 
" style="fill: none; stroke: #000000; stroke-width: 0.8; stroke-linejoin: miter; stroke-linecap: square"/>
   </g>
   <g id="patch_5">
    <path d="M 74.177469 410.388333 
L 732.443393 410.388333 
" style="fill: none; stroke: #000000; stroke-width: 0.8; stroke-linejoin: miter; stroke-linecap: square"/>
   </g>
   <g id="patch_6">
    <path d="M 74.177469 33.79 
L 732.443393 33.79 
" style="fill: none; stroke: #000000; stroke-width: 0.8; stroke-linejoin: miter; stroke-linecap: square"/>
   </g>
   <g id="text_19">
    <!-- Dolžina vrste pri c=1 -->
    <g transform="translate(340.061993 27.79)scale(0.12 -0.12)">
     <defs>
      <path id="DejaVuSans-44" d="M 1259 4147 
L 1259 519 
L 2022 519 
Q 2988 519 3436 956 
Q 3884 1394 3884 2338 
Q 3884 3275 3436 3711 
Q 2988 4147 2022 4147 
L 1259 4147 
z
M 628 4666 
L 1925 4666 
Q 3281 4666 3915 4102 
Q 4550 3538 4550 2338 
Q 4550 1131 3912 565 
Q 3275 0 1925 0 
L 628 0 
L 628 4666 
z
" transform="scale(0.015625)"/>
      <path id="DejaVuSans-6f" d="M 1959 3097 
Q 1497 3097 1228 2736 
Q 959 2375 959 1747 
Q 959 1119 1226 758 
Q 1494 397 1959 397 
Q 2419 397 2687 759 
Q 2956 1122 2956 1747 
Q 2956 2369 2687 2733 
Q 2419 3097 1959 3097 
z
M 1959 3584 
Q 2709 3584 3137 3096 
Q 3566 2609 3566 1747 
Q 3566 888 3137 398 
Q 2709 -91 1959 -91 
Q 1206 -91 779 398 
Q 353 888 353 1747 
Q 353 2609 779 3096 
Q 1206 3584 1959 3584 
z
" transform="scale(0.015625)"/>
      <path id="DejaVuSans-17e" d="M 353 3500 
L 3084 3500 
L 3084 2975 
L 922 459 
L 3084 459 
L 3084 0 
L 275 0 
L 275 525 
L 2438 3041 
L 353 3041 
L 353 3500 
z
M 1453 3944 
L 688 5119 
L 1122 5119 
L 1684 4353 
L 2247 5119 
L 2681 5119 
L 1916 3944 
L 1453 3944 
z
" transform="scale(0.015625)"/>
      <path id="DejaVuSans-69" d="M 603 3500 
L 1178 3500 
L 1178 0 
L 603 0 
L 603 3500 
z
M 603 4863 
L 1178 4863 
L 1178 4134 
L 603 4134 
L 603 4863 
z
" transform="scale(0.015625)"/>
      <path id="DejaVuSans-61" d="M 2194 1759 
Q 1497 1759 1228 1600 
Q 959 1441 959 1056 
Q 959 750 1161 570 
Q 1363 391 1709 391 
Q 2188 391 2477 730 
Q 2766 1069 2766 1631 
L 2766 1759 
L 2194 1759 
z
M 3341 1997 
L 3341 0 
L 2766 0 
L 2766 531 
Q 2569 213 2275 61 
Q 1981 -91 1556 -91 
Q 1019 -91 701 211 
Q 384 513 384 1019 
Q 384 1609 779 1909 
Q 1175 2209 1959 2209 
L 2766 2209 
L 2766 2266 
Q 2766 2663 2505 2880 
Q 2244 3097 1772 3097 
Q 1472 3097 1187 3025 
Q 903 2953 641 2809 
L 641 3341 
Q 956 3463 1253 3523 
Q 1550 3584 1831 3584 
Q 2591 3584 2966 3190 
Q 3341 2797 3341 1997 
z
" transform="scale(0.015625)"/>
      <path id="DejaVuSans-76" d="M 191 3500 
L 800 3500 
L 1894 563 
L 2988 3500 
L 3597 3500 
L 2284 0 
L 1503 0 
L 191 3500 
z
" transform="scale(0.015625)"/>
      <path id="DejaVuSans-72" d="M 2631 2963 
Q 2534 3019 2420 3045 
Q 2306 3072 2169 3072 
Q 1681 3072 1420 2755 
Q 1159 2438 1159 1844 
L 1159 0 
L 581 0 
L 581 3500 
L 1159 3500 
L 1159 2956 
Q 1341 3275 1631 3429 
Q 1922 3584 2338 3584 
Q 2397 3584 2469 3576 
Q 2541 3569 2628 3553 
L 2631 2963 
z
" transform="scale(0.015625)"/>
      <path id="DejaVuSans-73" d="M 2834 3397 
L 2834 2853 
Q 2591 2978 2328 3040 
Q 2066 3103 1784 3103 
Q 1356 3103 1142 2972 
Q 928 2841 928 2578 
Q 928 2378 1081 2264 
Q 1234 2150 1697 2047 
L 1894 2003 
Q 2506 1872 2764 1633 
Q 3022 1394 3022 966 
Q 3022 478 2636 193 
Q 2250 -91 1575 -91 
Q 1294 -91 989 -36 
Q 684 19 347 128 
L 347 722 
Q 666 556 975 473 
Q 1284 391 1588 391 
Q 1994 391 2212 530 
Q 2431 669 2431 922 
Q 2431 1156 2273 1281 
Q 2116 1406 1581 1522 
L 1381 1569 
Q 847 1681 609 1914 
Q 372 2147 372 2553 
Q 372 3047 722 3315 
Q 1072 3584 1716 3584 
Q 2034 3584 2315 3537 
Q 2597 3491 2834 3397 
z
" transform="scale(0.015625)"/>
      <path id="DejaVuSans-70" d="M 1159 525 
L 1159 -1331 
L 581 -1331 
L 581 3500 
L 1159 3500 
L 1159 2969 
Q 1341 3281 1617 3432 
Q 1894 3584 2278 3584 
Q 2916 3584 3314 3078 
Q 3713 2572 3713 1747 
Q 3713 922 3314 415 
Q 2916 -91 2278 -91 
Q 1894 -91 1617 61 
Q 1341 213 1159 525 
z
M 3116 1747 
Q 3116 2381 2855 2742 
Q 2594 3103 2138 3103 
Q 1681 3103 1420 2742 
Q 1159 2381 1159 1747 
Q 1159 1113 1420 752 
Q 1681 391 2138 391 
Q 2594 391 2855 752 
Q 3116 1113 3116 1747 
z
" transform="scale(0.015625)"/>
      <path id="DejaVuSans-63" d="M 3122 3366 
L 3122 2828 
Q 2878 2963 2633 3030 
Q 2388 3097 2138 3097 
Q 1578 3097 1268 2742 
Q 959 2388 959 1747 
Q 959 1106 1268 751 
Q 1578 397 2138 397 
Q 2388 397 2633 464 
Q 2878 531 3122 666 
L 3122 134 
Q 2881 22 2623 -34 
Q 2366 -91 2075 -91 
Q 1284 -91 818 406 
Q 353 903 353 1747 
Q 353 2603 823 3093 
Q 1294 3584 2113 3584 
Q 2378 3584 2631 3529 
Q 2884 3475 3122 3366 
z
" transform="scale(0.015625)"/>
      <path id="DejaVuSans-3d" d="M 678 2906 
L 4684 2906 
L 4684 2381 
L 678 2381 
L 678 2906 
z
M 678 1631 
L 4684 1631 
L 4684 1100 
L 678 1100 
L 678 1631 
z
" transform="scale(0.015625)"/>
     </defs>
     <use xlink:href="#DejaVuSans-44"/>
     <use xlink:href="#DejaVuSans-6f" x="77.001953"/>
     <use xlink:href="#DejaVuSans-6c" x="138.183594"/>
     <use xlink:href="#DejaVuSans-17e" x="165.966797"/>
     <use xlink:href="#DejaVuSans-69" x="218.457031"/>
     <use xlink:href="#DejaVuSans-6e" x="246.240234"/>
     <use xlink:href="#DejaVuSans-61" x="309.619141"/>
     <use xlink:href="#DejaVuSans-20" x="370.898438"/>
     <use xlink:href="#DejaVuSans-76" x="402.685547"/>
     <use xlink:href="#DejaVuSans-72" x="461.865234"/>
     <use xlink:href="#DejaVuSans-73" x="502.978516"/>
     <use xlink:href="#DejaVuSans-74" x="555.078125"/>
     <use xlink:href="#DejaVuSans-65" x="594.287109"/>
     <use xlink:href="#DejaVuSans-20" x="655.810547"/>
     <use xlink:href="#DejaVuSans-70" x="687.597656"/>
     <use xlink:href="#DejaVuSans-72" x="751.074219"/>
     <use xlink:href="#DejaVuSans-69" x="792.1875"/>
     <use xlink:href="#DejaVuSans-20" x="819.970703"/>
     <use xlink:href="#DejaVuSans-63" x="851.757812"/>
     <use xlink:href="#DejaVuSans-3d" x="906.738281"/>
     <use xlink:href="#DejaVuSans-31" x="990.527344"/>
    </g>
   </g>
   <g id="legend_1">
    <g id="patch_7">
     <path d="M 619.982456 100.5025 
L 727.443393 100.5025 
L 727.443393 38.79 
L 619.982456 38.79 
z
" style="fill: #ffffff; opacity: 0.8; stroke: #cccccc; stroke-linejoin: miter"/>
    </g>
    <g id="line2d_39">
     <path d="M 623.982456 46.888437 
L 633.982456 46.888437 
L 643.982456 46.888437 
" style="fill: none; stroke: #1f77b4; stroke-width: 1.5; stroke-linecap: square"/>
    </g>
    <g id="text_20">
     <!-- ponovitev st 3 -->
     <g transform="translate(651.982456 50.388437)scale(0.1 -0.1)">
      <use xlink:href="#DejaVuSans-70"/>
      <use xlink:href="#DejaVuSans-6f" x="63.476562"/>
      <use xlink:href="#DejaVuSans-6e" x="124.658203"/>
      <use xlink:href="#DejaVuSans-6f" x="188.037109"/>
      <use xlink:href="#DejaVuSans-76" x="249.21875"/>
      <use xlink:href="#DejaVuSans-69" x="308.398438"/>
      <use xlink:href="#DejaVuSans-74" x="336.181641"/>
      <use xlink:href="#DejaVuSans-65" x="375.390625"/>
      <use xlink:href="#DejaVuSans-76" x="436.914062"/>
      <use xlink:href="#DejaVuSans-20" x="496.09375"/>
      <use xlink:href="#DejaVuSans-73" x="527.880859"/>
      <use xlink:href="#DejaVuSans-74" x="579.980469"/>
      <use xlink:href="#DejaVuSans-20" x="619.189453"/>
      <use xlink:href="#DejaVuSans-33" x="650.976562"/>
     </g>
    </g>
    <g id="line2d_40">
     <path d="M 623.982456 61.566562 
L 633.982456 61.566562 
L 643.982456 61.566562 
" style="fill: none; stroke: #ff7f0e; stroke-width: 1.5; stroke-linecap: square"/>
    </g>
    <g id="text_21">
     <!-- ponovitev st 1 -->
     <g transform="translate(651.982456 65.066562)scale(0.1 -0.1)">
      <use xlink:href="#DejaVuSans-70"/>
      <use xlink:href="#DejaVuSans-6f" x="63.476562"/>
      <use xlink:href="#DejaVuSans-6e" x="124.658203"/>
      <use xlink:href="#DejaVuSans-6f" x="188.037109"/>
      <use xlink:href="#DejaVuSans-76" x="249.21875"/>
      <use xlink:href="#DejaVuSans-69" x="308.398438"/>
      <use xlink:href="#DejaVuSans-74" x="336.181641"/>
      <use xlink:href="#DejaVuSans-65" x="375.390625"/>
      <use xlink:href="#DejaVuSans-76" x="436.914062"/>
      <use xlink:href="#DejaVuSans-20" x="496.09375"/>
      <use xlink:href="#DejaVuSans-73" x="527.880859"/>
      <use xlink:href="#DejaVuSans-74" x="579.980469"/>
      <use xlink:href="#DejaVuSans-20" x="619.189453"/>
      <use xlink:href="#DejaVuSans-31" x="650.976562"/>
     </g>
    </g>
    <g id="line2d_41">
     <path d="M 623.982456 76.244687 
L 633.982456 76.244687 
L 643.982456 76.244687 
" style="fill: none; stroke: #2ca02c; stroke-width: 1.5; stroke-linecap: square"/>
    </g>
    <g id="text_22">
     <!-- ponovitev st 2 -->
     <g transform="translate(651.982456 79.744687)scale(0.1 -0.1)">
      <use xlink:href="#DejaVuSans-70"/>
      <use xlink:href="#DejaVuSans-6f" x="63.476562"/>
      <use xlink:href="#DejaVuSans-6e" x="124.658203"/>
      <use xlink:href="#DejaVuSans-6f" x="188.037109"/>
      <use xlink:href="#DejaVuSans-76" x="249.21875"/>
      <use xlink:href="#DejaVuSans-69" x="308.398438"/>
      <use xlink:href="#DejaVuSans-74" x="336.181641"/>
      <use xlink:href="#DejaVuSans-65" x="375.390625"/>
      <use xlink:href="#DejaVuSans-76" x="436.914062"/>
      <use xlink:href="#DejaVuSans-20" x="496.09375"/>
      <use xlink:href="#DejaVuSans-73" x="527.880859"/>
      <use xlink:href="#DejaVuSans-74" x="579.980469"/>
      <use xlink:href="#DejaVuSans-20" x="619.189453"/>
      <use xlink:href="#DejaVuSans-32" x="650.976562"/>
     </g>
    </g>
    <g id="line2d_42">
     <path d="M 623.982456 90.922812 
L 633.982456 90.922812 
L 643.982456 90.922812 
" style="fill: none; stroke: #d62728; stroke-width: 1.5; stroke-linecap: square"/>
    </g>
    <g id="text_23">
     <!-- ponovitev st 0 -->
     <g transform="translate(651.982456 94.422812)scale(0.1 -0.1)">
      <use xlink:href="#DejaVuSans-70"/>
      <use xlink:href="#DejaVuSans-6f" x="63.476562"/>
      <use xlink:href="#DejaVuSans-6e" x="124.658203"/>
      <use xlink:href="#DejaVuSans-6f" x="188.037109"/>
      <use xlink:href="#DejaVuSans-76" x="249.21875"/>
      <use xlink:href="#DejaVuSans-69" x="308.398438"/>
      <use xlink:href="#DejaVuSans-74" x="336.181641"/>
      <use xlink:href="#DejaVuSans-65" x="375.390625"/>
      <use xlink:href="#DejaVuSans-76" x="436.914062"/>
      <use xlink:href="#DejaVuSans-20" x="496.09375"/>
      <use xlink:href="#DejaVuSans-73" x="527.880859"/>
      <use xlink:href="#DejaVuSans-74" x="579.980469"/>
      <use xlink:href="#DejaVuSans-20" x="619.189453"/>
      <use xlink:href="#DejaVuSans-30" x="650.976562"/>
     </g>
    </g>
   </g>
  </g>
 </g>
 <defs>
  <clipPath id="p870fdeb690">
   <rect x="74.177469" y="33.79" width="658.265924" height="376.598333"/>
  </clipPath>
 </defs>
</svg>
